# Blender v2.79 (sub 0) OBJ File: 'top_center.blend'
# www.blender.org
mtllib top_center.mtl
o Cylinder_Cylinder.003
v 0.000000 0.000000 -1.000000
v -0.000000 0.750000 -0.748790
v 0.195090 0.000000 -0.980785
v 0.146082 0.750000 -0.734403
v 0.382683 0.000000 -0.923880
v 0.286550 0.750000 -0.691792
v 0.555570 0.000000 -0.831470
v 0.416006 0.750000 -0.622596
v 0.707107 0.000000 -0.707107
v 0.529475 0.750000 -0.529475
v 0.831470 0.000000 -0.555570
v 0.622597 0.750000 -0.416006
v 0.923880 0.000000 -0.382683
v 0.691792 0.750000 -0.286550
v 0.980785 0.000000 -0.195090
v 0.734403 0.750000 -0.146082
v 1.000000 0.000000 -0.000000
v 0.748790 0.750000 -0.000000
v 0.980785 0.000000 0.195090
v 0.734403 0.750000 0.146082
v 0.923880 0.000000 0.382683
v 0.691792 0.750000 0.286550
v 0.831470 0.000000 0.555570
v 0.622596 0.750000 0.416006
v 0.707107 0.000000 0.707107
v 0.529475 0.750000 0.529475
v 0.555570 0.000000 0.831470
v 0.416006 0.750000 0.622597
v 0.382683 0.000000 0.923880
v 0.286550 0.750000 0.691792
v 0.195090 0.000000 0.980785
v 0.146082 0.750000 0.734403
v -0.000000 0.000000 1.000000
v -0.000000 0.750000 0.748790
v -0.195091 0.000000 0.980785
v -0.146082 0.750000 0.734402
v -0.382684 0.000000 0.923879
v -0.286550 0.750000 0.691792
v -0.555571 0.000000 0.831469
v -0.416006 0.750000 0.622596
v -0.707107 0.000000 0.707106
v -0.529475 0.750000 0.529474
v -0.831470 0.000000 0.555570
v -0.622597 0.750000 0.416005
v -0.923880 0.000000 0.382683
v -0.691792 0.750000 0.286549
v -0.980785 0.000000 0.195089
v -0.734403 0.750000 0.146081
v -1.000000 0.000000 -0.000001
v -0.748790 0.750000 -0.000001
v -0.980785 0.000000 -0.195091
v -0.734402 0.750000 -0.146083
v -0.923879 0.000000 -0.382684
v -0.691792 0.750000 -0.286550
v -0.831469 0.000000 -0.555571
v -0.622596 0.750000 -0.416006
v -0.707106 0.000000 -0.707108
v -0.529474 0.750000 -0.529475
v -0.555569 0.000000 -0.831470
v -0.416005 0.750000 -0.622597
v -0.382682 0.000000 -0.923880
v -0.286549 0.750000 -0.691792
v -0.195089 0.000000 -0.980786
v -0.146081 0.750000 -0.734403
v -0.000000 0.250000 -0.748790
v -0.000000 0.500000 -0.748790
v 0.146082 0.500000 -0.734403
v 0.146082 0.250000 -0.734403
v 0.286550 0.500000 -0.691792
v 0.286550 0.250000 -0.691792
v 0.416006 0.500000 -0.622596
v 0.416006 0.250000 -0.622596
v 0.529475 0.500000 -0.529475
v 0.529475 0.250000 -0.529475
v 0.622597 0.500000 -0.416006
v 0.622596 0.250000 -0.416006
v 0.691792 0.500000 -0.286550
v 0.691792 0.250000 -0.286550
v 0.734403 0.500000 -0.146082
v 0.734403 0.250000 -0.146082
v 0.748790 0.500000 -0.000000
v 0.748790 0.250000 -0.000000
v 0.734403 0.500000 0.146082
v 0.734403 0.250000 0.146082
v 0.691792 0.500000 0.286550
v 0.691792 0.250000 0.286550
v 0.622596 0.500000 0.416006
v 0.622597 0.250000 0.416006
v 0.529475 0.500000 0.529475
v 0.529475 0.250000 0.529475
v 0.416006 0.500000 0.622596
v 0.416006 0.250000 0.622597
v 0.286550 0.500000 0.691792
v 0.286550 0.250000 0.691792
v 0.146082 0.500000 0.734403
v 0.146082 0.250000 0.734403
v -0.000000 0.500000 0.748790
v -0.000000 0.250000 0.748790
v -0.146082 0.500000 0.734402
v -0.146082 0.250000 0.734402
v -0.286550 0.500000 0.691792
v -0.286550 0.250000 0.691792
v -0.416006 0.500000 0.622596
v -0.416006 0.250000 0.622596
v -0.529475 0.500000 0.529474
v -0.529475 0.250000 0.529474
v -0.622597 0.500000 0.416005
v -0.622597 0.250000 0.416005
v -0.691792 0.500000 0.286549
v -0.691792 0.250000 0.286549
v -0.734403 0.500000 0.146081
v -0.734403 0.250000 0.146081
v -0.748790 0.500000 -0.000001
v -0.748790 0.250000 -0.000001
v -0.734402 0.500000 -0.146083
v -0.734402 0.250000 -0.146083
v -0.691792 0.500000 -0.286550
v -0.691792 0.250000 -0.286550
v -0.622596 0.500000 -0.416006
v -0.622596 0.250000 -0.416006
v -0.529474 0.500000 -0.529475
v -0.529474 0.250000 -0.529475
v -0.416005 0.500000 -0.622597
v -0.416005 0.250000 -0.622597
v -0.286549 0.500000 -0.691792
v -0.286549 0.250000 -0.691793
v -0.146081 0.500000 -0.734403
v -0.146081 0.250000 -0.734403
v -0.195089 0.250000 -0.980786
v 0.000000 0.250000 -1.000000
v -0.382682 0.250000 -0.923880
v -0.555569 0.250000 -0.831470
v -0.707106 0.250000 -0.707108
v -0.831469 0.250000 -0.555571
v -0.923879 0.250000 -0.382684
v -0.980785 0.250000 -0.195091
v -1.000000 0.250000 -0.000001
v -0.980785 0.250000 0.195089
v -0.923880 0.250000 0.382683
v -0.831470 0.250000 0.555570
v -0.707107 0.250000 0.707106
v -0.555571 0.250000 0.831469
v -0.382684 0.250000 0.923879
v -0.195091 0.250000 0.980785
v -0.000000 0.250000 1.000000
v 0.195090 0.250000 0.980785
v 0.382683 0.250000 0.923880
v 0.555570 0.250000 0.831470
v 0.707107 0.250000 0.707107
v 0.831470 0.250000 0.555570
v 0.923880 0.250000 0.382683
v 0.980785 0.250000 0.195090
v 1.000000 0.250000 -0.000000
v 0.980785 0.250000 -0.195090
v 0.923880 0.250000 -0.382683
v 0.831470 0.250000 -0.555570
v 0.707107 0.250000 -0.707107
v 0.555570 0.250000 -0.831470
v 0.382683 0.250000 -0.923880
v 0.195090 0.250000 -0.980785
v -0.195089 0.500000 -0.980786
v 0.000000 0.500000 -1.000000
v -0.382682 0.500000 -0.923880
v -0.555569 0.500000 -0.831470
v -0.707106 0.500000 -0.707108
v -0.831469 0.500000 -0.555571
v -0.923879 0.500000 -0.382684
v -0.980785 0.500000 -0.195091
v -1.000000 0.500000 -0.000001
v -0.980785 0.500000 0.195089
v -0.923880 0.500000 0.382683
v -0.831470 0.500000 0.555570
v -0.707107 0.500000 0.707106
v -0.555571 0.500000 0.831469
v -0.382684 0.500000 0.923879
v -0.195091 0.500000 0.980785
v -0.000000 0.500000 1.000000
v 0.195090 0.500000 0.980785
v 0.382683 0.500000 0.923880
v 0.555570 0.500000 0.831470
v 0.707107 0.500000 0.707107
v 0.831470 0.500000 0.555570
v 0.923880 0.500000 0.382683
v 0.980785 0.500000 0.195090
v 1.000000 0.500000 -0.000000
v 0.980785 0.500000 -0.195090
v 0.923880 0.500000 -0.382683
v 0.831470 0.500000 -0.555570
v 0.707107 0.500000 -0.707107
v 0.555570 0.500000 -0.831470
v 0.382683 0.500000 -0.923880
v 0.195090 0.500000 -0.980785
v -0.000000 0.250000 -0.748790
v 0.146082 0.250000 -0.734403
v 0.286550 0.250000 -0.691792
v 0.416006 0.250000 -0.622596
v 0.529475 0.250000 -0.529475
v 0.622596 0.250000 -0.416006
v 0.691792 0.250000 -0.286550
v 0.734403 0.250000 -0.146082
v 0.748790 0.250000 -0.000000
v 0.734403 0.250000 0.146082
v 0.691792 0.250000 0.286550
v 0.622597 0.250000 0.416006
v 0.529475 0.250000 0.529475
v 0.416006 0.250000 0.622597
v 0.286550 0.250000 0.691792
v 0.146082 0.250000 0.734403
v -0.000000 0.250000 0.748790
v -0.146082 0.250000 0.734402
v -0.286550 0.250000 0.691792
v -0.416006 0.250000 0.622596
v -0.529475 0.250000 0.529474
v -0.622597 0.250000 0.416005
v -0.691792 0.250000 0.286549
v -0.734403 0.250000 0.146081
v -0.748790 0.250000 -0.000001
v -0.734402 0.250000 -0.146083
v -0.691792 0.250000 -0.286550
v -0.622596 0.250000 -0.416006
v -0.529474 0.250000 -0.529475
v -0.416005 0.250000 -0.622597
v -0.286549 0.250000 -0.691793
v -0.146081 0.250000 -0.734403
v 0.195090 0.750000 -0.980785
v 0.000000 0.750000 -1.000000
v 0.382683 0.750000 -0.923880
v 0.555570 0.750000 -0.831470
v 0.707107 0.750000 -0.707107
v 0.831470 0.750000 -0.555570
v 0.923880 0.750000 -0.382683
v 0.980785 0.750000 -0.195090
v 1.000000 0.750000 -0.000000
v 0.980785 0.750000 0.195090
v 0.923880 0.750000 0.382683
v 0.831470 0.750000 0.555570
v 0.707107 0.750000 0.707107
v 0.555570 0.750000 0.831470
v 0.382683 0.750000 0.923880
v 0.195090 0.750000 0.980785
v -0.000000 0.750000 1.000000
v -0.195091 0.750000 0.980785
v -0.382684 0.750000 0.923879
v -0.555571 0.750000 0.831469
v -0.707107 0.750000 0.707106
v -0.831470 0.750000 0.555570
v -0.923880 0.750000 0.382683
v -0.980785 0.750000 0.195089
v -1.000000 0.750000 -0.000001
v -0.980785 0.750000 -0.195091
v -0.923879 0.750000 -0.382684
v -0.831469 0.750000 -0.555571
v -0.707106 0.750000 -0.707108
v -0.555569 0.750000 -0.831470
v -0.382682 0.750000 -0.923880
v -0.195089 0.750000 -0.980786
v 0.146082 0.625000 -0.734403
v -0.000000 0.625000 -0.748790
v 0.286550 0.625000 -0.691792
v 0.416006 0.625000 -0.622596
v 0.529475 0.625000 -0.529475
v 0.622597 0.625000 -0.416006
v 0.691792 0.625000 -0.286550
v 0.734403 0.625000 -0.146082
v 0.748790 0.625000 -0.000000
v 0.734403 0.625000 0.146082
v 0.691792 0.625000 0.286550
v 0.622596 0.625000 0.416006
v 0.529475 0.625000 0.529475
v 0.416006 0.625000 0.622597
v 0.286550 0.625000 0.691792
v 0.146082 0.625000 0.734403
v -0.000000 0.625000 0.748790
v -0.146082 0.625000 0.734402
v -0.286550 0.625000 0.691792
v -0.416006 0.625000 0.622596
v -0.529475 0.625000 0.529474
v -0.622597 0.625000 0.416005
v -0.691792 0.625000 0.286549
v -0.734403 0.625000 0.146081
v -0.748790 0.625000 -0.000001
v -0.734402 0.625000 -0.146083
v -0.691792 0.625000 -0.286550
v -0.622596 0.625000 -0.416006
v -0.529474 0.625000 -0.529475
v -0.416005 0.625000 -0.622597
v -0.286549 0.625000 -0.691792
v -0.146081 0.625000 -0.734403
v 0.000000 0.625000 0.000000
vn 0.0980 0.0000 -0.9952
vn 0.2903 0.0000 -0.9569
vn 0.4714 0.0000 -0.8819
vn 0.6344 0.0000 -0.7730
vn 0.7730 0.0000 -0.6344
vn 0.8819 0.0000 -0.4714
vn 0.9569 0.0000 -0.2903
vn 0.9952 0.0000 -0.0980
vn 0.9952 0.0000 0.0980
vn 0.9569 0.0000 0.2903
vn 0.8819 0.0000 0.4714
vn 0.7730 0.0000 0.6344
vn 0.6344 0.0000 0.7730
vn 0.4714 0.0000 0.8819
vn 0.2903 0.0000 0.9569
vn 0.0980 0.0000 0.9952
vn -0.0980 0.0000 0.9952
vn -0.2903 0.0000 0.9569
vn -0.4714 0.0000 0.8819
vn -0.6344 0.0000 0.7730
vn -0.7730 0.0000 0.6344
vn -0.8819 0.0000 0.4714
vn -0.9569 0.0000 0.2903
vn -0.9952 0.0000 0.0980
vn -0.9952 0.0000 -0.0980
vn -0.9569 0.0000 -0.2903
vn -0.8819 0.0000 -0.4714
vn -0.7730 0.0000 -0.6344
vn -0.6344 0.0000 -0.7730
vn -0.4714 0.0000 -0.8819
vn -0.2903 0.0000 -0.9569
vn -0.0980 0.0000 -0.9952
vn 0.0000 -1.0000 0.0000
vn 0.0000 0.0000 1.0000
vn 0.0000 1.0000 0.0000
usemtl None
s off
f 162//1 226//1 225//1 192//1
f 192//2 225//2 227//2 191//2
f 191//3 227//3 228//3 190//3
f 190//4 228//4 229//4 189//4
f 189//5 229//5 230//5 188//5
f 188//6 230//6 231//6 187//6
f 187//7 231//7 232//7 186//7
f 186//8 232//8 233//8 185//8
f 185//9 233//9 234//9 184//9
f 184//10 234//10 235//10 183//10
f 183//11 235//11 236//11 182//11
f 182//12 236//12 237//12 181//12
f 181//13 237//13 238//13 180//13
f 180//14 238//14 239//14 179//14
f 179//15 239//15 240//15 178//15
f 178//16 240//16 241//16 177//16
f 177//17 241//17 242//17 176//17
f 176//18 242//18 243//18 175//18
f 175//19 243//19 244//19 174//19
f 174//20 244//20 245//20 173//20
f 173//21 245//21 246//21 172//21
f 172//22 246//22 247//22 171//22
f 171//23 247//23 248//23 170//23
f 170//24 248//24 249//24 169//24
f 169//25 249//25 250//25 168//25
f 168//26 250//26 251//26 167//26
f 167//27 251//27 252//27 166//27
f 166//28 252//28 253//28 165//28
f 165//29 253//29 254//29 164//29
f 164//30 254//30 255//30 163//30
f 18//24 16//24 264//24 265//24
f 163//31 255//31 256//31 161//31
f 161//32 256//32 226//32 162//32
f 1//33 3//33 5//33 7//33 9//33 11//33 13//33 15//33 17//33 19//33 21//33 23//33 25//33 27//33 29//33 31//33 33//33 35//33 37//33 39//33 41//33 43//33 45//33 47//33 49//33 51//33 53//33 55//33 57//33 59//33 61//33 63//33
f 63//32 129//32 130//32 1//32
f 61//31 131//31 129//31 63//31
f 59//30 132//30 131//30 61//30
f 57//29 133//29 132//29 59//29
f 55//28 134//28 133//28 57//28
f 53//27 135//27 134//27 55//27
f 51//26 136//26 135//26 53//26
f 49//25 137//25 136//25 51//25
f 47//24 138//24 137//24 49//24
f 45//23 139//23 138//23 47//23
f 43//22 140//22 139//22 45//22
f 41//21 141//21 140//21 43//21
f 39//20 142//20 141//20 41//20
f 37//19 143//19 142//19 39//19
f 35//18 144//18 143//18 37//18
f 33//17 145//17 144//17 35//17
f 31//16 146//16 145//16 33//16
f 29//15 147//15 146//15 31//15
f 27//14 148//14 147//14 29//14
f 25//13 149//13 148//13 27//13
f 23//12 150//12 149//12 25//12
f 21//11 151//11 150//11 23//11
f 19//10 152//10 151//10 21//10
f 17//9 153//9 152//9 19//9
f 15//8 154//8 153//8 17//8
f 13//7 155//7 154//7 15//7
f 11//6 156//6 155//6 13//6
f 9//5 157//5 156//5 11//5
f 7//4 158//4 157//4 9//4
f 5//3 159//3 158//3 7//3
f 3//2 160//2 159//2 5//2
f 1//1 130//1 160//1 3//1
f 70//34 68//34 194//34 195//34
f 128//35 65//35 130//35 129//35
f 126//35 128//35 129//35 131//35
f 124//35 126//35 131//35 132//35
f 122//35 124//35 132//35 133//35
f 120//35 122//35 133//35 134//35
f 118//35 120//35 134//35 135//35
f 116//35 118//35 135//35 136//35
f 114//35 116//35 136//35 137//35
f 112//35 114//35 137//35 138//35
f 110//35 112//35 138//35 139//35
f 108//35 110//35 139//35 140//35
f 106//35 108//35 140//35 141//35
f 104//35 106//35 141//35 142//35
f 102//35 104//35 142//35 143//35
f 100//35 102//35 143//35 144//35
f 98//35 100//35 144//35 145//35
f 96//35 98//35 145//35 146//35
f 94//35 96//35 146//35 147//35
f 92//35 94//35 147//35 148//35
f 90//35 92//35 148//35 149//35
f 88//35 90//35 149//35 150//35
f 86//35 88//35 150//35 151//35
f 84//35 86//35 151//35 152//35
f 82//35 84//35 152//35 153//35
f 80//35 82//35 153//35 154//35
f 78//35 80//35 154//35 155//35
f 76//35 78//35 155//35 156//35
f 74//35 76//35 156//35 157//35
f 72//35 74//35 157//35 158//35
f 70//35 72//35 158//35 159//35
f 68//35 70//35 159//35 160//35
f 65//35 68//35 160//35 130//35
f 66//33 127//33 161//33 162//33
f 127//33 125//33 163//33 161//33
f 125//33 123//33 164//33 163//33
f 123//33 121//33 165//33 164//33
f 121//33 119//33 166//33 165//33
f 119//33 117//33 167//33 166//33
f 117//33 115//33 168//33 167//33
f 115//33 113//33 169//33 168//33
f 113//33 111//33 170//33 169//33
f 111//33 109//33 171//33 170//33
f 109//33 107//33 172//33 171//33
f 107//33 105//33 173//33 172//33
f 105//33 103//33 174//33 173//33
f 103//33 101//33 175//33 174//33
f 101//33 99//33 176//33 175//33
f 99//33 97//33 177//33 176//33
f 97//33 95//33 178//33 177//33
f 95//33 93//33 179//33 178//33
f 93//33 91//33 180//33 179//33
f 91//33 89//33 181//33 180//33
f 89//33 87//33 182//33 181//33
f 87//33 85//33 183//33 182//33
f 85//33 83//33 184//33 183//33
f 83//33 81//33 185//33 184//33
f 81//33 79//33 186//33 185//33
f 79//33 77//33 187//33 186//33
f 77//33 75//33 188//33 187//33
f 75//33 73//33 189//33 188//33
f 73//33 71//33 190//33 189//33
f 71//33 69//33 191//33 190//33
f 69//33 67//33 192//33 191//33
f 67//33 66//33 162//33 192//33
f 96//34 94//34 207//34 208//34
f 122//34 120//34 220//34 221//34
f 68//34 65//34 193//34 194//34
f 94//34 92//34 206//34 207//34
f 120//34 118//34 219//34 220//34
f 92//34 90//34 205//34 206//34
f 118//34 116//34 218//34 219//34
f 90//34 88//34 204//34 205//34
f 116//34 114//34 217//34 218//34
f 88//34 86//34 203//34 204//34
f 114//34 112//34 216//34 217//34
f 86//34 84//34 202//34 203//34
f 112//34 110//34 215//34 216//34
f 84//34 82//34 201//34 202//34
f 110//34 108//34 214//34 215//34
f 82//34 80//34 200//34 201//34
f 108//34 106//34 213//34 214//34
f 80//34 78//34 199//34 200//34
f 106//34 104//34 212//34 213//34
f 78//34 76//34 198//34 199//34
f 104//34 102//34 211//34 212//34
f 65//34 128//34 224//34 193//34
f 76//34 74//34 197//34 198//34
f 102//34 100//34 210//34 211//34
f 128//34 126//34 223//34 224//34
f 74//34 72//34 196//34 197//34
f 100//34 98//34 209//34 210//34
f 126//34 124//34 222//34 223//34
f 72//34 70//34 195//34 196//34
f 98//34 96//34 208//34 209//34
f 124//34 122//34 221//34 222//34
f 127//31 224//31 223//31 125//31
f 125//30 223//30 222//30 123//30
f 123//29 222//29 221//29 121//29
f 121//28 221//28 220//28 119//28
f 119//27 220//27 219//27 117//27
f 117//26 219//26 218//26 115//26
f 115//25 218//25 217//25 113//25
f 113//24 217//24 216//24 111//24
f 111//23 216//23 215//23 109//23
f 109//22 215//22 214//22 107//22
f 107//21 214//21 213//21 105//21
f 105//20 213//20 212//20 103//20
f 103//19 212//19 211//19 101//19
f 101//18 211//18 210//18 99//18
f 99//17 210//17 209//17 97//17
f 97//16 209//16 208//16 95//16
f 95//15 208//15 207//15 93//15
f 93//14 207//14 206//14 91//14
f 91//13 206//13 205//13 89//13
f 89//12 205//12 204//12 87//12
f 87//11 204//11 203//11 85//11
f 85//10 203//10 202//10 83//10
f 83//9 202//9 201//9 81//9
f 81//8 201//8 200//8 79//8
f 79//7 200//7 199//7 77//7
f 77//6 199//6 198//6 75//6
f 75//5 198//5 197//5 73//5
f 73//4 197//4 196//4 71//4
f 71//3 196//3 195//3 69//3
f 69//2 195//2 194//2 67//2
f 67//1 194//1 193//1 66//1
f 66//32 193//32 224//32 127//32
f 2//35 4//35 225//35 226//35
f 4//35 6//35 227//35 225//35
f 6//35 8//35 228//35 227//35
f 8//35 10//35 229//35 228//35
f 10//35 12//35 230//35 229//35
f 12//35 14//35 231//35 230//35
f 14//35 16//35 232//35 231//35
f 16//35 18//35 233//35 232//35
f 18//35 20//35 234//35 233//35
f 20//35 22//35 235//35 234//35
f 22//35 24//35 236//35 235//35
f 24//35 26//35 237//35 236//35
f 26//35 28//35 238//35 237//35
f 28//35 30//35 239//35 238//35
f 30//35 32//35 240//35 239//35
f 32//35 34//35 241//35 240//35
f 34//35 36//35 242//35 241//35
f 36//35 38//35 243//35 242//35
f 38//35 40//35 244//35 243//35
f 40//35 42//35 245//35 244//35
f 42//35 44//35 246//35 245//35
f 44//35 46//35 247//35 246//35
f 46//35 48//35 248//35 247//35
f 48//35 50//35 249//35 248//35
f 50//35 52//35 250//35 249//35
f 52//35 54//35 251//35 250//35
f 54//35 56//35 252//35 251//35
f 56//35 58//35 253//35 252//35
f 58//35 60//35 254//35 253//35
f 60//35 62//35 255//35 254//35
f 62//35 64//35 256//35 255//35
f 64//35 2//35 226//35 256//35
f 46//6 44//6 278//6 279//6
f 20//25 18//25 265//25 266//25
f 48//7 46//7 279//7 280//7
f 22//26 20//26 266//26 267//26
f 50//8 48//8 280//8 281//8
f 24//27 22//27 267//27 268//27
f 52//9 50//9 281//9 282//9
f 26//28 24//28 268//28 269//28
f 54//10 52//10 282//10 283//10
f 28//29 26//29 269//29 270//29
f 56//11 54//11 283//11 284//11
f 30//30 28//30 270//30 271//30
f 4//17 2//17 258//17 257//17
f 58//12 56//12 284//12 285//12
f 32//31 30//31 271//31 272//31
f 6//18 4//18 257//18 259//18
f 60//13 58//13 285//13 286//13
f 34//32 32//32 272//32 273//32
f 8//19 6//19 259//19 260//19
f 62//14 60//14 286//14 287//14
f 36//1 34//1 273//1 274//1
f 10//20 8//20 260//20 261//20
f 64//15 62//15 287//15 288//15
f 38//2 36//2 274//2 275//2
f 12//21 10//21 261//21 262//21
f 2//16 64//16 288//16 258//16
f 40//3 38//3 275//3 276//3
f 14//22 12//22 262//22 263//22
f 42//4 40//4 276//4 277//4
f 16//23 14//23 263//23 264//23
f 44//5 42//5 277//5 278//5
f 257//35 258//35 289//35
f 258//35 288//35 289//35
f 288//35 287//35 289//35
f 287//35 286//35 289//35
f 286//35 285//35 289//35
f 285//35 284//35 289//35
f 284//35 283//35 289//35
f 283//35 282//35 289//35
f 282//35 281//35 289//35
f 281//35 280//35 289//35
f 280//35 279//35 289//35
f 279//35 278//35 289//35
f 278//35 277//35 289//35
f 277//35 276//35 289//35
f 276//35 275//35 289//35
f 275//35 274//35 289//35
f 274//35 273//35 289//35
f 273//35 272//35 289//35
f 272//35 271//35 289//35
f 271//35 270//35 289//35
f 270//35 269//35 289//35
f 269//35 268//35 289//35
f 268//35 267//35 289//35
f 267//35 266//35 289//35
f 266//35 265//35 289//35
f 265//35 264//35 289//35
f 264//35 263//35 289//35
f 263//35 262//35 289//35
f 262//35 261//35 289//35
f 261//35 260//35 289//35
f 260//35 259//35 289//35
f 259//35 257//35 289//35
o Cone_Cone.001
v 0.000000 0.000000 -1.000000
v -0.195090 0.000000 -0.980785
v -0.382683 0.000000 -0.923880
v -0.555570 0.000000 -0.831470
v -0.707107 0.000000 -0.707107
v -0.831470 0.000000 -0.555570
v -0.923879 0.000000 -0.382683
v -0.980785 0.000000 -0.195090
v -1.000000 0.000000 -0.000000
v -0.980785 0.000000 0.195090
v -0.923880 0.000000 0.382683
v -0.831470 0.000000 0.555570
v -0.707107 0.000000 0.707107
v -0.555570 0.000000 0.831470
v -0.382683 0.000000 0.923880
v -0.195090 0.000000 0.980785
v 0.000000 0.000000 1.000000
v 0.195091 -0.000000 0.980785
v 0.382684 -0.000000 0.923879
v 0.555571 -0.000000 0.831469
v 0.707107 -0.000000 0.707106
v 0.831470 -0.000000 0.555570
v 0.923880 -0.000000 0.382683
v -0.000000 -1.000000 0.000000
v 0.980785 -0.000000 0.195089
v 1.000000 -0.000000 -0.000001
v 0.980785 -0.000000 -0.195091
v 0.923879 -0.000000 -0.382684
v 0.831469 -0.000000 -0.555571
v 0.707106 -0.000000 -0.707108
v 0.555569 -0.000000 -0.831470
v 0.382682 -0.000000 -0.923880
v 0.195089 -0.000000 -0.980786
vn -0.0695 -0.7054 -0.7054
vn -0.2058 -0.7054 -0.6783
vn -0.3341 -0.7054 -0.6251
vn -0.4497 -0.7054 -0.5479
vn -0.5479 -0.7054 -0.4497
vn -0.6251 -0.7054 -0.3341
vn -0.6783 -0.7054 -0.2058
vn -0.7054 -0.7054 -0.0695
vn -0.7054 -0.7054 0.0695
vn -0.6783 -0.7054 0.2058
vn -0.6251 -0.7054 0.3341
vn -0.5479 -0.7054 0.4497
vn -0.4497 -0.7054 0.5479
vn -0.3341 -0.7054 0.6251
vn -0.2058 -0.7054 0.6783
vn -0.0695 -0.7054 0.7054
vn 0.0695 -0.7054 0.7054
vn 0.2058 -0.7054 0.6783
vn 0.3341 -0.7054 0.6251
vn 0.4497 -0.7054 0.5479
vn 0.5479 -0.7054 0.4497
vn 0.6251 -0.7054 0.3341
vn 0.6783 -0.7054 0.2058
vn 0.7054 -0.7054 0.0695
vn 0.7054 -0.7054 -0.0695
vn 0.6783 -0.7054 -0.2058
vn 0.6251 -0.7054 -0.3341
vn 0.5479 -0.7054 -0.4497
vn 0.4497 -0.7054 -0.5479
vn 0.3341 -0.7054 -0.6251
vn 0.2058 -0.7054 -0.6783
vn 0.0695 -0.7054 -0.7054
vn 0.0000 1.0000 -0.0000
usemtl None
s off
f 290//36 313//36 291//36
f 291//37 313//37 292//37
f 292//38 313//38 293//38
f 293//39 313//39 294//39
f 294//40 313//40 295//40
f 295//41 313//41 296//41
f 296//42 313//42 297//42
f 297//43 313//43 298//43
f 298//44 313//44 299//44
f 299//45 313//45 300//45
f 300//46 313//46 301//46
f 301//47 313//47 302//47
f 302//48 313//48 303//48
f 303//49 313//49 304//49
f 304//50 313//50 305//50
f 305//51 313//51 306//51
f 306//52 313//52 307//52
f 307//53 313//53 308//53
f 308//54 313//54 309//54
f 309//55 313//55 310//55
f 310//56 313//56 311//56
f 311//57 313//57 312//57
f 312//58 313//58 314//58
f 314//59 313//59 315//59
f 315//60 313//60 316//60
f 316//61 313//61 317//61
f 317//62 313//62 318//62
f 318//63 313//63 319//63
f 319//64 313//64 320//64
f 320//65 313//65 321//65
f 321//66 313//66 322//66
f 322//67 313//67 290//67
f 290//68 291//68 292//68 293//68 294//68 295//68 296//68 297//68 298//68 299//68 300//68 301//68 302//68 303//68 304//68 305//68 306//68 307//68 308//68 309//68 310//68 311//68 312//68 314//68 315//68 316//68 317//68 318//68 319//68 320//68 321//68 322//68
